# xmcd CD database file
#
# Track frame offsets:
#	150
#	12458
#	26212
#	40033
#	50650
#	61471
#	78485
#	89066
#	101320
#	116257
#	129795
#	144271
#	157113
#	170171
#	184890
#	199960
#	213060
#	223085
#	234319
#	249314
#	264326
#	274657
#
# Disc length: 3879 seconds
#
# Revision: 1
# Processed by: cddbd v1.5.1PL2 Copyright (c) Steve Scherf et al.
# Submitted via: CDex 1.51
#
DISCID=380f2516
DTITLE=George Jones - The Spirit of Country - The Essential George Jones - Disc Two
DYEAR=1998
DGENRE=Country
TTITLE0=The Door
TTITLE1=These Days (I Barely Get By)
TTITLE2=Golden Ring
TTITLE3=Her Name Is
TTITLE4=Near You - (with Tammy Wynette)
TTITLE5=Bartender's Blues - (with James Taylor)
TTITLE6=Maybelline - (with Johnny Paycheck)
TTITLE7=Two Story House (with Tammy Wynette)
TTITLE8=He Stopped Loving Her Today
TTITLE9=I'm Not Ready Yet
TTITLE10=If Drinkin' Don't Kill Me (Her Memory Will)
TTITLE11=Still Doin' Time
TTITLE12=Same Ole Me
TTITLE13=Yesterday's Wine - (with Merle Haggard)
TTITLE14=I Always Get Lucky With You
TTITLE15=Tennessee Whiskey
TTITLE16=We Didn't See A Thing - (with Ray Charles/Chet Atkins)
TTITLE17=She's My Rock
TTITLE18=Who's Gonna Fill Their Shoes
TTITLE19=Wine Colored Roses
TTITLE20=I'm A One Woman Man
TTITLE21=Ya Ba Da Ba Do (So Are You)
EXTD=YEAR: 1998
EXTT0=
EXTT1=
EXTT2=
EXTT3=
EXTT4=
EXTT5=
EXTT6=
EXTT7=
EXTT8=
EXTT9=
EXTT10=
EXTT11=
EXTT12=
EXTT13=
EXTT14=
EXTT15=
EXTT16=
EXTT17=
EXTT18=
EXTT19=
EXTT20=
EXTT21=
PLAYORDER=
